<svg id="logo" data-name="logo" fill="#B33C86" xmlns="http://www.w3.org/2000/svg" viewBox="0 0 512 402.32">
  <g>
    <path d="M162.13,589a10.41,10.41,0,0,0-1.92-3,9.27,9.27,0,0,0-10-1.92,10.26,10.26,0,0,0-3,1.92,9.79,9.79,0,0,0-2.65,6.49,9,9,0,0,0,9.14,9.14,9.22,9.22,0,0,0,3.47-.73,10.74,10.74,0,0,0,3-1.92,9.05,9.05,0,0,0,2.65-6.49A9.27,9.27,0,0,0,162.13,589Z" transform="translate(-144.58 -199.33)"/>
    <path d="M217,534.17a9,9,0,0,0-14.91-3,10.69,10.69,0,0,0-1.92,3,9.31,9.31,0,0,0-.73,3.48,9,9,0,0,0,.73,3.47,10.74,10.74,0,0,0,1.92,3,9.15,9.15,0,0,0,15.64-6.49A9.31,9.31,0,0,0,217,534.17Z" transform="translate(-144.58 -199.33)"/>
    <path d="M260.78,467.16a10.38,10.38,0,0,0-3-1.92,9.09,9.09,0,0,0-10,1.92,9.57,9.57,0,0,0-2.65,6.49,9.14,9.14,0,1,0,18.28,0A9.64,9.64,0,0,0,260.78,467.16Z" transform="translate(-144.58 -199.33)"/>
    <path d="M299.27,534.17a9,9,0,0,0-14.9-3,10.47,10.47,0,0,0-1.92,3,8.64,8.64,0,0,0,0,7,10.52,10.52,0,0,0,1.92,3,9.08,9.08,0,0,0,6.49,2.65,7.74,7.74,0,0,0,3.47-.73,10.6,10.6,0,0,0,3-1.92,9.05,9.05,0,0,0,2.65-6.49A7.7,7.7,0,0,0,299.27,534.17Z" transform="translate(-144.58 -199.33)"/>
    <path d="M390.7,534.17a10.69,10.69,0,0,0-1.92-3,9.55,9.55,0,0,0-13,0,9.38,9.38,0,0,0-1.92,3,9.06,9.06,0,0,0,1.92,10,10.69,10.69,0,0,0,3,1.92,7.81,7.81,0,0,0,3.48.73,9.06,9.06,0,0,0,6.49-2.65,10.74,10.74,0,0,0,1.92-3,8.64,8.64,0,0,0,0-7Z" transform="translate(-144.58 -199.33)"/>
    <path d="M343.07,467.16a9.42,9.42,0,0,0-3-1.92,9.11,9.11,0,0,0-10,1.92,9.55,9.55,0,0,0-1.92,3,9.31,9.31,0,0,0-.73,3.48,9.05,9.05,0,0,0,2.65,6.49,10.74,10.74,0,0,0,3,1.92,9.05,9.05,0,0,0,12.62-8.41A9.64,9.64,0,0,0,343.07,467.16Z" transform="translate(-144.58 -199.33)"/>
    <path d="M253.56,589a9.44,9.44,0,0,0-1.92-3,9.55,9.55,0,0,0-13,0A9.87,9.87,0,0,0,236,592.5a9.07,9.07,0,0,0,9.15,9.15,9.26,9.26,0,0,0,3.47-.73,10.74,10.74,0,0,0,3-1.92,9.09,9.09,0,0,0,2.65-6.49A9.27,9.27,0,0,0,253.56,589Z" transform="translate(-144.58 -199.33)"/>
    <path d="M169.35,467.16a9.11,9.11,0,0,0-10-1.92,10.47,10.47,0,0,0-3,1.92,9.57,9.57,0,0,0-2.65,6.49,9.14,9.14,0,1,0,18.28,0A9.59,9.59,0,0,0,169.35,467.16Z" transform="translate(-144.58 -199.33)"/>
    <path d="M345.72,199.33a54.94,54.94,0,0,0-54.86,54.88,9.15,9.15,0,1,0,18.29,0,36.57,36.57,0,1,1,36.57,36.45H263.43a9.15,9.15,0,0,0,0,18.29h82.29a54.82,54.82,0,1,0,0-109.63Z" transform="translate(-144.58 -199.33)"/>
    <path d="M482.86,235.9A54.94,54.94,0,0,0,428,290.78a9.15,9.15,0,0,0,18.29,0,36.57,36.57,0,1,1,36.57,36.45H236a9.15,9.15,0,0,0,0,18.29H482.86a54.82,54.82,0,1,0,0-109.63Z" transform="translate(-144.58 -199.33)"/>
    <path d="M482.86,400.39H181.15a9.14,9.14,0,1,0,0,18.28H482.86a36.62,36.62,0,1,1-36.57,36.68,9.15,9.15,0,1,0-18.29,0,54.86,54.86,0,1,0,54.86-55Z" transform="translate(-144.58 -199.33)"/>
    <path d="M601.72,272.51a54.91,54.91,0,0,0-54.86,54.85,9.15,9.15,0,1,0,18.29,0,36.57,36.57,0,1,1,36.57,36.45H208.58a9.15,9.15,0,1,0,0,18.29H601.72a54.8,54.8,0,1,0,0-109.59Z" transform="translate(-144.58 -199.33)"/>
  </g>
</svg>
